<!DOCTYPE svg PUBLIC "-//W3C//DTD SVG 1.1//EN" "http://www.w3.org/Graphics/SVG/1.1/DTD/svg11.dtd">
<!-- Uploaded to: SVG Repo, www.svgrepo.com, Transformed by: SVG Repo Mixer Tools -->
<svg height="800px" width="800px" version="1.1" id="_x32_" xmlns="http://www.w3.org/2000/svg" xmlns:xlink="http://www.w3.org/1999/xlink" viewBox="0 0 512 512" xml:space="preserve" fill="#000000">
<g id="SVGRepo_bgCarrier" stroke-width="0"/>
<g id="SVGRepo_tracerCarrier" stroke-linecap="round" stroke-linejoin="round"/>
<g id="SVGRepo_iconCarrier"> <style type="text/css"> .st0{fill:#27ae60;} </style> <g> <path class="st0" d="M256.001,0c-76.388,0-138.316,61.922-138.316,138.316c0,62.193,41.052,114.792,97.528,132.192v216.898 c0,3.876,1.855,7.512,5.001,9.782l17.354,12.527c5.31,3.839,12.724,2.731,16.684-2.504l42.342-56.008 c3.258-4.306,3.258-10.25,0-14.557l-16.442-21.699v-0.022l16.427-21.684c3.273-4.306,3.265-10.265,0-14.571l-10.846-14.308 c-3.288-4.344-3.258-10.355,0.075-14.67l27.952-36.112c1.644-2.112,2.534-4.706,2.534-7.383V262.83 c46.181-22.4,78.023-69.735,78.023-124.514C394.316,61.922,332.395,0,256.001,0z M256.001,468.143h-14.541V275.87 c4.781,0.498,9.631,0.762,14.541,0.762V468.143z M256.906,97.634c-15.975,0-28.932-12.95-28.932-28.924 c0-15.982,12.957-28.932,28.932-28.932c15.974,0,28.931,12.949,28.931,28.932C285.837,84.683,272.879,97.634,256.906,97.634z"/> </g> </g>
</svg>