<?xml version="1.0" encoding="UTF-8"?>
<svg xmlns="http://www.w3.org/2000/svg" viewBox="0 0 1024 1024">
  <defs>
    <style>
      .cls-1 {
        fill: #0000;
      }

      .cls-2 {
        mix-blend-mode: multiply;
      }

      .cls-2, .cls-3 {
        opacity: .2;
      }

      .cls-4 {
        isolation: isolate;
      }

      .cls-5 {
        fill: #373538;
      }

      .cls-6 {
        fill: #ff3233;
      }

      .cls-7 {
        fill: #8d3abd;
      }

      .cls-8 {
        fill: #33d632;
      }

      .cls-9 {
        fill: #ffff32;
      }

      .cls-10 {
        fill: #ffbb35;
      }

      .cls-11 {
        fill: #4266bc;
      }
    </style>
  </defs>
  <g class="cls-4">
    <g id="Layer_1" data-name="Layer 1">
      <g>
        <rect class="cls-1" width="1024" height="1024"/>
        <g>
          <g>
            <g>
              <path class="cls-11" d="m546.75,132.94c-40.61-23.43-162.52,200.37-169.68,213.63-.05.08-.1.18-.15.26-.05.1-.11.21-.18.31-.02.02-.02.03-.02.03l-75.11,130.09c-12.38,21.44-12.41,47.86-.08,69.36-3.75-6.12-141.19-230.69-100.42-254.24l276.15-159.44c21.49-12.41,47.98-12.41,69.49,0Z"/>
              <path class="cls-7" d="m857.64,352.56c0-47.26-270.53-40.13-270.53-40.13h-150.21c-24.61,0-47.32,12.98-59.83,34.15,7.16-13.26,129.08-237.07,169.68-213.63l276.15,159.44c21.49,12.41,34.74,35.36,34.74,60.18Z"/>
              <path class="cls-6" d="m857.63,352.56v318.88c0,24.82-13.24,47.77-34.74,60.18,41.19-23.79-96.67-248.12-100.44-254.22-.05-.08-.08-.13-.08-.13l-75.1-130.09c-3.34-5.81-7.47-11.02-12.2-15.52-12.75-12.18-29.86-19.23-47.98-19.23,0,0,.7-.02,2.02-.05,1.68-.03,4.4-.08,8.01-.15,6.43-.08,15.64-.18,26.83-.18,6.95,0,14.66.03,22.91.13,2.72.03,5.48.08,8.32.11,1.47.03,2.97.05,4.47.08,5.76.11,11.73.24,17.81.42,1.65.05,3.28.1,4.94.15,3,.1,6.03.21,9.1.33h.36c3.05.13,6.12.24,9.2.38,1.74.08,3.51.16,5.27.26,4.66.23,9.36.47,14.06.75,18.77,1.11,37.59,2.67,55.01,4.84,2.27.28,4.5.57,6.7.88,1.48.2,2.95.41,4.39.62,1.45.21,2.89.42,4.32.65,2.12.33,4.22.67,6.29,1.03.7.11,1.39.24,2.07.36,2.04.36,4.04.73,6.02,1.13.67.13,1.32.26,1.97.39,1.94.39,3.85.8,5.71,1.22,3.11.7,6.1,1.44,8.97,2.2,1.71.46,3.38.93,4.99,1.42,1.08.33,2.14.65,3.16.99,1.55.51,3.05,1.03,4.48,1.57.47.18.95.36,1.42.54.93.36,1.84.73,2.72,1.11.88.38,1.74.75,2.58,1.14.41.2.82.39,1.21.59.82.39,1.58.8,2.33,1.21,8.19,4.48,12.9,9.77,12.9,16.01Z"/>
              <path class="cls-10" d="m822.9,731.61l-43.27,24.97-15.12,8.74-18.88,10.9-98.32,56.78-10.88,6.28-47.14,27.23-42.55,24.56c-21.51,12.4-47.99,12.4-69.48,0,23.91,13.83,72.8-52.04,112.03-114.29,2.39-3.79,4.74-7.58,7.05-11.32,2.47-4.02,4.9-7.98,7.26-11.9,23.27-38.56,40.78-71.27,43.35-76.11.05-.09.09-.19.14-.26.12-.23.18-.35.18-.35l17.14-29.67,14.14-24.49,4.75-8.23,39.06-67.69c12.32-21.34,12.42-47.58.3-68.99,7.26,11.77,140.85,230.37,100.24,253.85Z"/>
              <path class="cls-9" d="m646.96,677.44c-7.06,13.31-127.38,238.06-169.7,213.61l-276.15-159.44c-21.51-12.41-34.75-35.36-34.75-60.18.98,45.53,270.54,40.13,270.54,40.13h150.21c24.59,0,47.32-12.98,59.85-34.13Z"/>
              <path class="cls-8" d="m436.9,711.57s-269.57,5.4-270.54-40.13v-318.88c0-24.82,13.24-47.77,34.75-60.18-40.77,23.55,96.67,248.12,100.42,254.24.05.08.08.13.08.13l75.11,130.09c12.41,21.49,35.34,34.74,60.18,34.74Z"/>
            </g>
            <g class="cls-2">
              <g>
                <path class="cls-5" d="m844.73,336.54c-.75-.41-1.52-.82-2.33-1.21-.39-.2-.8-.39-1.21-.59-.83-.39-1.7-.77-2.58-1.14-.88-.38-1.79-.75-2.72-1.11-.47-.18-.95-.36-1.42-.54-1.44-.54-2.94-1.06-4.48-1.57-1.03-.33-2.09-.67-3.16-.99-1.61-.49-3.28-.96-4.99-1.42-2.87-.77-5.85-1.5-8.97-2.2-1.86-.42-3.77-.83-5.71-1.22-.65-.13-1.3-.26-1.97-.39-1.97-.39-3.98-.75-6.02-1.13-.68-.11-1.37-.24-2.07-.36-2.07-.36-4.17-.7-6.29-1.03-1.44-.23-2.87-.44-4.32-.65-1.43-.21-2.9-.42-4.39-.62-2.2-.31-4.44-.6-6.7-.88-17.42-2.17-36.24-3.73-55.01-4.84-4.7-.28-9.39-.52-14.06-.75-1.76-.1-3.52-.18-5.27-.26-3.08-.13-6.15-.24-9.2-.38h-.36c-3.07-.11-6.1-.23-9.1-.33-1.66-.05-3.29-.1-4.94-.15-6.08-.18-12.05-.31-17.81-.42-1.5-.03-3-.05-4.47-.08-2.84-.03-5.59-.08-8.32-.11-8.25-.1-15.97-.13-22.91-.13-11.19,0-20.4.1-26.83.18-3.6.05-6.31.11-8.01.15-1.32.03-2.02.05-2.02.05,18.12,0,35.22,7.04,47.98,19.23,33.56.2,78.23,1.3,118.56,5.15,31.65,3.03,51.79,6.93,64.5,10.45,11.25,3.13,19.72,6.88,25.51,17.03,3.72,6.51,9.2,18.79,13.99,28.03v-39.76c0-6.25-4.71-11.53-12.9-16.01Z"/>
                <path class="cls-5" d="m179.26,687.28c.75.41,1.52.82,2.33,1.21.39.2.8.39,1.21.59.83.39,1.7.77,2.58,1.14.88.38,1.79.75,2.72,1.11.47.18.95.36,1.42.54,1.44.54,2.94,1.06,4.48,1.57,1.03.33,2.09.67,3.16.99,1.61.49,3.28.96,4.99,1.42,2.87.77,5.85,1.5,8.97,2.2,1.86.42,3.77.83,5.71,1.22.65.13,1.3.26,1.97.39,1.97.39,3.98.75,6.02,1.13.68.11,1.37.24,2.07.36,2.07.36,4.17.7,6.29,1.03,1.44.23,2.87.44,4.32.65,1.43.21,2.9.42,4.39.62,2.2.31,4.44.6,6.7.88,17.42,2.17,36.24,3.73,55.01,4.84,4.7.28,9.39.52,14.06.75,1.76.1,3.52.18,5.27.26,3.08.13,6.15.24,9.2.38h.36c3.07.11,6.1.23,9.1.33,1.66.05,3.29.1,4.94.15,6.08.18,12.05.31,17.81.42,1.5.03,3,.05,4.47.08,2.84.03,5.59.08,8.32.11,8.25.1,15.97.13,22.91.13,11.19,0,20.4-.1,26.83-.18,3.6-.05,6.31-.11,8.01-.15,1.32-.03,2.02-.05,2.02-.05-18.12,0-35.22-7.04-47.98-19.23-33.56-.2-78.23-1.3-118.56-5.15-31.65-3.03-51.79-6.93-64.5-10.45-11.25-3.13-19.72-6.88-25.51-17.03-3.72-6.51-9.2-18.79-13.99-28.03v39.76c0,6.25,4.71,11.53,12.9,16.01Z"/>
              </g>
              <g>
                <path class="cls-5" d="m830.58,711.85c-.02-.85-.06-1.72-.13-2.62-.03-.44-.06-.89-.1-1.34-.08-.92-.19-1.85-.3-2.8-.12-.95-.25-1.93-.41-2.91-.08-.5-.16-1-.25-1.5-.25-1.51-.55-3.07-.89-4.67-.23-1.05-.47-2.14-.73-3.24-.39-1.64-.81-3.32-1.27-5.03-.78-2.87-1.64-5.82-2.59-8.86-.57-1.82-1.17-3.68-1.8-5.55-.21-.63-.43-1.26-.65-1.9-.65-1.9-1.35-3.82-2.04-5.77-.24-.65-.48-1.31-.73-1.97-.73-1.97-1.49-3.96-2.27-5.96-.52-1.36-1.06-2.7-1.6-4.07-.54-1.35-1.09-2.72-1.66-4.11-.84-2.06-1.7-4.14-2.6-6.24-6.86-16.16-14.94-33.22-23.39-50.02-2.12-4.2-4.26-8.39-6.4-12.54-.8-1.57-1.61-3.14-2.42-4.69-1.43-2.73-2.87-5.44-4.29-8.15l-.18-.31c-1.44-2.71-2.86-5.39-4.28-8.04-.79-1.46-1.57-2.9-2.35-4.35-2.9-5.35-5.78-10.58-8.56-15.62-.72-1.31-1.46-2.62-2.17-3.91-1.39-2.47-2.73-4.88-4.07-7.25-4.05-7.19-7.89-13.88-11.38-19.89-5.61-9.68-10.32-17.6-13.61-23.12-1.85-3.09-3.26-5.4-4.14-6.85-.69-1.13-1.06-1.72-1.06-1.72,9.09,15.68,11.57,34.01,7.42,51.15,16.66,29.13,38.1,68.34,54.99,105.16,13.25,28.91,19.98,48.29,23.3,61.04,2.93,11.31,3.93,20.51-1.94,30.6-3.76,6.48-11.64,17.38-17.24,26.16l34.4-19.94c5.4-3.13,7.61-9.86,7.39-19.19Z"/>
                <path class="cls-5" d="m193.41,311.97c.02.85.06,1.72.13,2.62.03.44.06.89.1,1.34.08.92.19,1.85.3,2.8.12.95.25,1.93.41,2.91.08.5.16,1,.25,1.5.25,1.51.55,3.07.89,4.67.23,1.05.47,2.14.73,3.24.39,1.64.81,3.32,1.27,5.03.78,2.87,1.64,5.82,2.59,8.86.57,1.82,1.17,3.68,1.8,5.55.21.63.43,1.26.65,1.9.65,1.9,1.35,3.82,2.04,5.77.24.65.48,1.31.73,1.97.73,1.97,1.49,3.96,2.27,5.96.52,1.36,1.06,2.7,1.6,4.07.54,1.35,1.09,2.72,1.66,4.11.84,2.06,1.7,4.14,2.6,6.24,6.86,16.16,14.94,33.22,23.39,50.02,2.12,4.2,4.26,8.39,6.4,12.54.8,1.57,1.61,3.14,2.42,4.69,1.43,2.73,2.87,5.44,4.29,8.15l.18.31c1.44,2.71,2.86,5.39,4.28,8.04.79,1.46,1.57,2.9,2.35,4.35,2.9,5.35,5.78,10.58,8.56,15.62.72,1.31,1.46,2.62,2.17,3.91,1.39,2.47,2.73,4.88,4.07,7.25,4.05,7.19,7.89,13.88,11.38,19.89,5.61,9.68,10.32,17.6,13.61,23.12,1.85,3.09,3.26,5.4,4.14,6.85.69,1.13,1.06,1.72,1.06,1.72-9.09-15.68-11.57-34.01-7.42-51.15-16.66-29.13-38.1-68.34-54.99-105.16-13.25-28.91-19.98-48.29-23.3-61.04-2.93-11.31-3.93-20.51,1.94-30.6,3.76-6.48,11.64-17.38,17.24-26.16l-34.4,19.94c-5.4,3.13-7.61,9.86-7.39,19.19Z"/>
              </g>
              <g>
                <path class="cls-5" d="m498.42,888.6c.73-.45,1.46-.91,2.21-1.42.36-.24.74-.5,1.11-.75.75-.53,1.51-1.09,2.28-1.66.76-.58,1.55-1.18,2.32-1.81.39-.32.78-.64,1.17-.96,1.18-.97,2.38-2.01,3.6-3.1.8-.73,1.62-1.47,2.44-2.24,1.23-1.15,2.47-2.36,3.72-3.62,2.1-2.1,4.22-4.32,6.39-6.67,1.3-1.4,2.6-2.85,3.91-4.33.44-.5.88-1,1.32-1.51,1.32-1.51,2.64-3.07,3.98-4.65.44-.54.9-1.06,1.34-1.62,1.34-1.62,2.69-3.27,4.03-4.94.91-1.13,1.81-2.27,2.72-3.42.9-1.14,1.82-2.3,2.73-3.49,1.37-1.75,2.74-3.54,4.11-5.37,10.57-14.01,21.33-29.53,31.66-45.24,2.58-3.93,5.14-7.88,7.67-11.81.96-1.48,1.91-2.96,2.86-4.43,1.65-2.61,3.28-5.2,4.92-7.78l.18-.31c1.63-2.6,3.24-5.17,4.83-7.72.87-1.42,1.73-2.81,2.59-4.21,3.19-5.18,6.28-10.29,9.26-15.22.78-1.28,1.54-2.58,2.3-3.83,1.44-2.44,2.86-4.81,4.25-7.15,4.2-7.1,8.08-13.77,11.55-19.79,5.58-9.69,10.1-17.73,13.24-23.33,1.76-3.15,3.05-5.53,3.87-7.01.63-1.16.97-1.78.97-1.78-9.05,15.7-23.69,27-40.61,31.97-16.92,28.98-40.18,67.13-63.65,100.15-18.43,25.91-31.86,41.42-41.26,50.67-8.33,8.19-15.81,13.65-27.48,13.6-7.49-.03-20.87-1.41-31.27-1.87l34.45,19.85c5.41,3.12,12.34,1.67,20.32-3.18Z"/>
                <path class="cls-5" d="m526.16,136.05c-.73.45-1.46.91-2.21,1.42-.36.24-.74.5-1.11.75-.75.53-1.51,1.09-2.28,1.66-.76.58-1.55,1.18-2.32,1.81-.39.32-.78.64-1.17.96-1.18.97-2.38,2.01-3.6,3.1-.8.73-1.62,1.47-2.44,2.24-1.23,1.15-2.47,2.36-3.72,3.62-2.1,2.1-4.22,4.32-6.39,6.67-1.3,1.4-2.6,2.85-3.91,4.33-.44.5-.88,1-1.32,1.51-1.32,1.51-2.64,3.07-3.98,4.65-.44.54-.9,1.06-1.34,1.62-1.34,1.62-2.69,3.27-4.03,4.94-.91,1.13-1.81,2.27-2.72,3.42-.9,1.14-1.82,2.3-2.73,3.49-1.37,1.75-2.74,3.54-4.11,5.37-10.57,14.01-21.33,29.53-31.66,45.24-2.58,3.93-5.14,7.88-7.67,11.81-.96,1.48-1.91,2.96-2.86,4.43-1.65,2.61-3.28,5.2-4.92,7.78l-.18.31c-1.63,2.6-3.24,5.17-4.83,7.72-.87,1.42-1.73,2.81-2.59,4.21-3.19,5.18-6.28,10.29-9.26,15.22-.78,1.28-1.54,2.58-2.3,3.83-1.44,2.44-2.86,4.81-4.25,7.15-4.2,7.1-8.08,13.77-11.55,19.79-5.58,9.69-10.1,17.73-13.24,23.33-1.76,3.15-3.05,5.53-3.87,7.01-.63,1.16-.97,1.78-.97,1.78,9.05-15.7,23.69-27,40.61-31.97,16.92-28.98,40.18-67.13,63.65-100.15,18.43-25.91,31.86-41.42,41.26-50.67,8.33-8.19,15.81-13.65,27.48-13.6,7.49.03,20.87,1.41,31.27,1.87l-34.45-19.85c-5.41-3.12-12.34-1.67-20.32,3.18Z"/>
              </g>
            </g>
          </g>
          <g class="cls-3">
            <path class="cls-5" d="m745.63,776.21l-98.32,56.78-10.88,6.28c-2.42-5.28-4.67-10.65-6.7-16.07l-26.12-69.64c23.27-38.56,40.78-71.27,43.35-76.11.05-.09.09-.19.14-.26.12-.23.18-.35.18-.35l17.14-29.67,14.14-24.49,4.75-8.23c4.09,8.02,7.74,16.3,10.91,24.74l51.41,137.03Z"/>
          </g>
          <path class="cls-7" d="m926.9,859.3s-.07.04-.11.05l-123.54,46.34c-11.77,4.42-23.95,6.54-35.95,6.54-34.6,0-67.87-17.56-86.67-48.25l-.44-.72c-7.7-12.69-14.25-26.16-19.48-40.07l-52.57-140.1c-21.6-57.57-86.01-86.83-143.57-65.23-4.09,1.53-8.63-.54-10.16-4.63-1.53-4.07.53-8.63,4.61-10.16l123.66-46.39c45.72-17.16,97.27.39,122.61,41.71l.46.75c7.68,12.63,14.23,26.11,19.46,40.04l52.57,140.12c10.46,27.88,31.16,50.02,58.27,62.34,27.11,12.32,57.37,13.35,85.25,2.91l.05-.02c4.09-1.53,8.63.54,10.16,4.61,1.54,4.09-.53,8.63-4.61,10.16Z"/>
        </g>
      </g>
    </g>
  </g>
</svg>